<svg height="445pt" viewBox="-5 0 445 445.03566" width="445pt" xmlns="http://www.w3.org/2000/svg" xmlns:xlink="http://www.w3.org/1999/xlink"><linearGradient id="a"><stop offset=".322" stop-color="#a163f5"/><stop offset=".466" stop-color="#b074ee"/><stop offset=".752" stop-color="#d8a1dd"/><stop offset=".898" stop-color="#efbad3"/></linearGradient><linearGradient id="b" gradientUnits="userSpaceOnUse" x1="218.018018" x2="218.018018" xlink:href="#a" y1="452.51918" y2="-7.55082"/><linearGradient id="c" gradientUnits="userSpaceOnUse" x1="337.425018" x2="337.425018" xlink:href="#a" y1="452.51918" y2="-7.55082"/><linearGradient id="d" gradientUnits="userSpaceOnUse" x1="206.018018" x2="206.018018" xlink:href="#a" y1="452.51918" y2="-7.55082"/><path d="m401.390625 271.476562c24.644531-73.734374 5.6875-155.058593-49.019531-210.296874-.402344-.609376-.921875-1.128907-1.53125-1.53125-80.171875-79.53125-209.472656-79.53125-289.640625 0-.609375.402343-1.132813.921874-1.535157 1.53125-79.527343 80.171874-79.527343 209.472656 0 289.640624.203126.300782.433594.585938.691407.84375.257812.253907.542969.484376.84375.691407 51.742187 51.246093 126.699219 71.371093 197.152343 52.933593 5.515626 7.414063 12.039063 14.023438 19.386719 19.628907 17.128907 13.113281 38.117188 20.183593 59.6875 20.117187 41.300781.015625 78.230469-25.71875 92.511719-64.472656s2.886719-82.300781-28.546875-109.089844zm-189.371094 128.425782v-14.683594c0-3.3125-2.6875-6-6-6-3.316406 0-6 2.6875-6 6v14.679688c-47.28125-1.433594-92.394531-20.152344-126.800781-52.613282l10.3125-10.3125c2.34375-2.34375 2.34375-6.144531 0-8.488281-2.34375-2.339844-6.140625-2.339844-8.484375 0l-10.3125 10.316406c-32.464844-34.40625-51.183594-79.519531-52.617187-126.800781h14.679687c3.316406 0 6-2.6875 6-6s-2.683594-6-6-6h-14.679687c1.433593-47.28125 20.152343-92.394531 52.613281-126.800781l10.316406 10.320312c2.34375 2.34375 6.140625 2.34375 8.484375 0s2.34375-6.140625 0-8.484375l-10.3125-10.316406c34.402344-32.460938 79.519531-51.183594 126.800781-52.617188v14.679688c0 3.3125 2.683594 6 6 6 3.3125 0 6-2.6875 6-6v-14.679688c47.28125 1.433594 92.394531 20.15625 126.796875 52.617188l-10.3125 10.3125c-2.34375 2.34375-2.34375 6.144531 0 8.488281s6.140625 2.34375 8.484375 0l10.3125-10.3125c32.464844 34.402344 51.183594 79.519531 52.617188 126.800781h-14.679688c-3.3125 0-6 2.683594-6 6 0 3.3125 2.6875 6 6 6h14.679688c-.515625 17.597657-3.433594 35.042969-8.671875 51.851563-12.773438-8.386719-27.347656-13.644531-42.535156-15.339844 4.101562-13.800781 6.175781-28.121093 6.164062-42.515625 0-82.085937-66.777344-148.859375-148.855469-148.859375-82.082031 0-148.859375 66.773438-148.859375 148.855469s66.777344 148.859375 148.859375 148.859375c11.082031-.003906 22.128907-1.238281 32.941407-3.683594.679687 15.273438 4.957031 30.167969 12.488281 43.46875-12.929688 3.097657-26.140625 4.859375-39.429688 5.257813zm27.179688-62c-.027344.300781-.035157.609375-.058594.910156-10.835937 2.691406-21.957031 4.046875-33.121094 4.046875-75.464843 0-136.859375-61.394531-136.859375-136.859375s61.394532-136.855469 136.859375-136.855469c75.460938 0 136.855469 61.394531 136.855469 136.855469.015625 14.214844-2.1875 28.34375-6.527344 41.878906-50.726562.535156-92.761718 39.488282-97.148437 90.027344zm98.226562 95.132812c-22.972656.027344-45.015625-9.089844-61.257812-25.332031-16.246094-16.246094-25.359375-38.289063-25.335938-61.261719 0-2.5.109375-5.03125.320313-7.511718 4.0625-46.675782 44.507812-81.660157 91.285156-78.949219 46.773438 2.710937 82.910156 42.128906 81.554688 88.960937-1.355469 46.832032-39.714844 84.09375-86.566407 84.09375zm0 0" fill="url(#b)"/><path d="m373.484375 340.445312h-30.058594v-30.058593c0-3.3125-2.6875-6-6-6-3.316406 0-6 2.6875-6 6v30.058593h-30.058593c-3.3125 0-6 2.6875-6 6s2.6875 6 6 6h30.058593v30.058594c0 3.3125 2.683594 6 6 6 3.3125 0 6-2.6875 6-6v-30.058594h30.058594c3.3125 0 6-2.6875 6-6s-2.6875-6-6-6zm0 0" fill="url(#c)"/><path d="m254.875 173.546875c-.027344-18.101563-12.492188-33.804687-30.109375-37.941406v-17.804688c0-3.3125-2.6875-6-6-6s-6 2.6875-6 6v16.777344h-19.210937v-16.777344c0-3.3125-2.683594-6-6-6-3.3125 0-6 2.6875-6 6v16.777344h-18.398438c-3.3125 0-6 2.6875-6 6v131.867187c0 3.316407 2.6875 6 6 6h18.398438v15.757813c0 3.3125 2.6875 6 6 6 3.316406 0 6-2.6875 6-6v-15.757813h19.210937v15.757813c0 3.3125 2.6875 6 6 6s6-2.6875 6-6v-16.785156c15.3125-3.566407 26.976563-15.988281 29.574219-31.492188 2.597656-15.503906-4.382813-31.050781-17.695313-39.414062 11.339844-7.125 18.222657-19.574219 18.230469-32.964844zm-12 65.933594c-.019531 14.886719-12.082031 26.949219-26.96875 26.964843h-46.746094v-53.933593h46.746094c14.886719.019531 26.949219 12.082031 26.96875 26.96875zm-26.96875-38.96875h-46.746094v-53.933594h46.746094c14.894531 0 26.96875 12.074219 26.96875 26.96875s-12.074219 26.964844-26.96875 26.964844zm0 0" fill="url(#d)"/></svg>