<svg id="Capa_1" enable-background="new 0 0 512 512" height="512" viewBox="0 0 512 512" width="512" xmlns="http://www.w3.org/2000/svg"><g><g clip-rule="evenodd" fill-rule="evenodd"><path d="m7.512 474.61c0 16.441 13.465 29.906 29.906 29.906h403.006c27.1 0 36.71-13.21 36.71-36.71 0-85.409 0-170.846 0-256.255h-469.622z" fill="#ecbd83"/><path d="m411.312 504.517h29.111c27.1 0 36.71-13.21 36.71-36.71 0-85.409 0-170.846 0-256.255h-29.142v256.255c.001 23.5-9.58 36.71-36.679 36.71z" fill="#e2a975"/><path d="m37.418 181.646h432.431c5.159 0 7.285 2.636 7.285 7.256v52.555h-439.716c-16.441 0-29.906-13.465-29.906-29.906 0-16.468 13.436-29.905 29.906-29.905z" fill="#c38c66"/><path d="m440.708 181.646h29.141c5.159 0 7.285 2.636 7.285 7.256v52.555h-29.142v-52.555c0-4.62-2.097-7.256-7.284-7.256z" fill="#9f6e50"/><path d="m360.968 316.69h124.132c10.658 0 19.417 8.731 19.417 19.418v64.063c0 10.659-8.759 19.39-19.417 19.39h-124.132c-10.686 0-19.417-8.731-19.417-19.39v-64.063c0-10.687 8.73-19.418 19.417-19.418z" fill="#c38c66"/><path d="m455.958 316.69h29.142c10.658 0 19.417 8.731 19.417 19.418v64.063c0 10.659-8.759 19.39-19.417 19.39h-29.142c10.686 0 19.418-8.731 19.418-19.39v-64.063c0-10.687-8.731-19.418-19.418-19.418z" fill="#9f6e50"/><path d="m397.848 388.068c10.97 0 19.928-8.958 19.928-19.928 0-10.999-8.958-19.957-19.928-19.957-10.999 0-19.957 8.958-19.957 19.957 0 10.97 8.958 19.928 19.957 19.928z" fill="#9f6e50"/><path d="m242.309 7.512c64.603 0 116.986 52.357 116.986 116.959 0 34.583-15.023 65.651-38.862 87.081h-156.22c-23.867-21.43-38.863-52.498-38.863-87.081 0-64.602 52.356-116.959 116.959-116.959z" fill="#ffedb5"/><path d="m242.309 7.512c64.603 0 116.986 52.357 116.986 116.959 0 34.583-15.023 65.651-38.862 87.081h-24.266c23.841-21.43 38.864-52.498 38.864-87.081 0-60.492-45.951-110.27-104.855-116.335 3.997-.426 8.051-.624 12.133-.624z" fill="#ffe18c"/></g><path d="m222.352 64.801v-7.824c0-4.139 3.373-7.512 7.512-7.512s7.484 3.373 7.484 7.512v7.824h15.137v-7.824c0-4.139 3.373-7.512 7.512-7.512s7.483 3.373 7.483 7.512v8.816c4.933 1.333 9.354 3.94 12.897 7.427 5.244 5.215 8.504 12.415 8.504 20.324 0 8.135-3.486 15.79-9.496 21.232 6.01 5.443 9.496 13.096 9.496 21.232 0 7.908-3.26 15.109-8.504 20.296-3.543 3.515-7.965 6.122-12.897 7.455v8.815c0 4.139-3.345 7.512-7.483 7.512-4.139 0-7.512-3.373-7.512-7.512v-7.823h-15.137v7.823c0 4.139-3.346 7.512-7.484 7.512-4.139 0-7.512-3.373-7.512-7.512v-7.823c-6.35 0-12.729 0-19.106 0-4.139 0-7.483-3.345-7.483-7.512 0-4.139 3.345-7.484 7.483-7.484h6.066v-69.96h-6.066c-4.139 0-7.483-3.373-7.483-7.512s3.345-7.483 7.483-7.483c6.378.001 12.757.001 19.106.001zm27.468-49.551v11.311c0 4.139-3.373 7.512-7.512 7.512s-7.483-3.374-7.483-7.512v-11.311c-24.237 1.644-46.319 11.169-63.695 26.051l8.249 8.221c2.92 2.92 2.92 7.682 0 10.602-2.92 2.948-7.682 2.948-10.602 0l-8.334-8.334c-15.336 17.264-25.285 39.402-27.241 63.78h12.614c4.139 0 7.483 3.345 7.483 7.512 0 4.139-3.345 7.483-7.483 7.483h-12.812c.736 13.691 3.969 26.646 9.27 38.495 4.309 9.666 10.006 18.624 16.838 26.589l9.666-9.638c2.92-2.92 7.682-2.92 10.602 0 2.92 2.919 2.92 7.682 0 10.602l-7.427 7.427h140.741l-7.426-7.427c-2.948-2.92-2.948-7.683 0-10.602 2.919-2.92 7.653-2.92 10.602 0l9.638 9.638c6.831-7.966 12.528-16.923 16.866-26.589 5.272-11.849 8.504-24.804 9.24-38.495h-12.784c-4.139 0-7.512-3.345-7.512-7.483 0-4.167 3.373-7.512 7.512-7.512h12.614c-1.984-24.378-11.934-46.517-27.27-63.78l-8.305 8.334c-2.948 2.948-7.683 2.948-10.602 0-2.948-2.92-2.948-7.682 0-10.602l8.22-8.221c-17.377-14.882-39.43-24.406-63.667-26.051zm-7.511-15.25c34.384 0 65.51 13.947 88.017 36.454 22.536 22.536 36.454 53.66 36.454 88.017 0 17.631-3.685 34.413-10.318 49.664h120.673c4.139 0 7.483 3.373 7.483 7.512v59.811 67.72c7.455 0 14.173 2.608 19.474 7.909 4.876 4.904 7.909 11.623 7.909 19.021v15.024c0 4.139-3.346 7.512-7.483 7.512-4.139 0-7.513-3.373-7.513-7.512v-15.024c0-3.288-1.332-6.264-3.486-8.418s-5.131-3.515-8.418-3.515h-124.133c-3.288 0-6.293 1.361-8.447 3.515s-3.486 5.13-3.486 8.418v64.063c0 3.26 1.332 6.237 3.486 8.391s5.159 3.515 8.447 3.515h124.132c3.287 0 6.264-1.361 8.418-3.515s3.486-5.131 3.486-8.391v-15.051c0-4.139 3.374-7.512 7.513-7.512 4.138 0 7.483 3.373 7.483 7.512v15.052c0 7.371-3.033 14.117-7.909 18.993-5.301 5.301-12.018 7.909-19.474 7.909v40.734c0 13.635-2.977 24.492-10.205 32.259-7.229 7.823-18.199 11.933-33.988 11.933h-184.509c-4.139 0-7.512-3.345-7.512-7.483 0-4.139 3.373-7.512 7.512-7.512h184.509c11.311 0 18.709-2.466 23.046-7.115 4.337-4.706 6.152-12.19 6.152-22.082v-40.734h-108.654c-7.398 0-14.116-3.033-18.992-7.909-4.903-4.875-7.936-11.622-7.936-18.993v-64.063c0-7.398 3.033-14.117 7.936-19.021 4.876-4.876 11.594-7.909 18.992-7.909h108.654v-60.237h-432.204c-8.391 0-16.158-2.777-22.422-7.483v233.151c0 6.151 2.523 11.735 6.604 15.817 4.054 4.054 9.666 6.577 15.817 6.577h184.51c4.139 0 7.512 3.374 7.512 7.512s-3.373 7.483-7.512 7.483h-184.509c-10.29 0-19.645-4.195-26.419-10.97-6.804-6.774-10.999-16.129-10.999-26.419v-263.058c0-10.29 4.195-19.644 10.999-26.419 6.774-6.803 16.129-10.998 26.419-10.998h90.737c-6.633-15.251-10.318-32.032-10.318-49.664 0-34.357 13.92-65.481 36.455-88.017 22.535-22.507 53.66-36.454 88.017-36.454zm106.357 189.13c-3.176 5.245-6.747 10.233-10.658 14.911h109.19c4.168 0 7.513 3.373 7.513 7.512s-3.345 7.483-7.513 7.483c-136.573 0-273.177 0-409.78 0-4.139 0-7.512-3.345-7.512-7.483 0-4.139 3.373-7.512 7.512-7.512h109.192c-3.912-4.677-7.455-9.666-10.658-14.911h-98.534c-6.151 0-11.764 2.522-15.817 6.605-4.082 4.054-6.604 9.666-6.604 15.817s2.523 11.735 6.604 15.817c4.054 4.054 9.666 6.577 15.817 6.577h432.204v-44.816zm49.182 151.542c7.568 0 14.429 3.09 19.389 8.05 4.961 4.96 8.051 11.821 8.051 19.418 0 7.568-3.09 14.428-8.051 19.389-4.96 4.989-11.82 8.051-19.389 8.051-7.597 0-14.458-3.061-19.418-8.051-4.961-4.96-8.051-11.82-8.051-19.389 0-7.597 3.09-14.458 8.051-19.418 4.96-4.96 11.821-8.05 19.418-8.05zm8.787 18.652c-2.239-2.239-5.357-3.657-8.787-3.657-3.458 0-6.576 1.418-8.815 3.657-2.24 2.268-3.658 5.358-3.658 8.816 0 3.43 1.418 6.548 3.658 8.787 2.239 2.268 5.357 3.657 8.815 3.657 3.43 0 6.548-1.389 8.787-3.657 2.268-2.239 3.657-5.357 3.657-8.787 0-3.458-1.389-6.548-3.657-8.816zm-146.638-237.064h-35.689v27.496h35.689c3.826 0 7.313-1.56 9.836-4.054 2.494-2.466 4.054-5.896 4.054-9.694 0-3.771-1.56-7.2-4.054-9.695-2.523-2.494-6.01-4.053-9.836-4.053zm0-42.464h-35.689v27.468h35.689c3.826 0 7.313-1.531 9.836-4.025 2.494-2.495 4.054-5.925 4.054-9.695 0-3.798-1.56-7.228-4.054-9.723-2.523-2.466-6.01-4.025-9.836-4.025z"/></g></svg>